<svg xmlns="http://www.w3.org/2000/svg" xmlns:xlink="http://www.w3.org/1999/xlink" width="75.79" height="75.79" viewBox="0 0 75.79 75.79"><defs><style>.a{fill:none;clip-rule:evenodd;}.b{fill:url(#a);}.c,.f{fill:#c6d11d;}.d,.e{fill:#fff;}.e,.f{fill-rule:evenodd;}.g{clip-path:url(#b);}.h,.i,.j{opacity:0.5;mix-blend-mode:multiply;isolation:isolate;}.h{fill:url(#c);}.i{fill:url(#d);}.j{fill:url(#e);}</style><linearGradient id="a" x1="0.5" y1="0.989" x2="0.5" y2="-0.14" gradientUnits="objectBoundingBox"><stop offset="0" stop-color="#232322"/><stop offset="1" stop-color="#343433"/></linearGradient><clipPath id="b"><path class="a" d="M955.523,68.264h0L953.8,74.618h7.21l-5.1,18.471h9.98l5.015-18.472h7.92l1.727-6.353Z" transform="translate(-953.798 -68.264)"/></clipPath><linearGradient id="c" x1="-12.654" y1="20.157" x2="-12.651" y2="20.998" gradientUnits="objectBoundingBox"><stop offset="0.005" stop-color="#fff" stop-opacity="0"/><stop offset="1" stop-color="#c7c6c5"/></linearGradient><linearGradient id="d" x1="117.259" y1="162.574" x2="117.263" y2="163.128" xlink:href="#c"/><linearGradient id="e" x1="11.249" y1="129.367" x2="11.253" y2="129.938" xlink:href="#c"/></defs><g transform="translate(-899 -69.731)"><g transform="translate(907 44.731)"><g transform="translate(-8 25)"><rect class="b" width="74.596" height="74.596" rx="8" transform="translate(0.597 0.597)"/><path class="c" d="M971.821,120.521H917.968A10.98,10.98,0,0,1,907,109.553V55.7a10.981,10.981,0,0,1,10.968-10.969h53.853A10.981,10.981,0,0,1,982.79,55.7v53.853A10.981,10.981,0,0,1,971.821,120.521Zm-53.853-74.6a9.786,9.786,0,0,0-9.774,9.775v53.853a9.785,9.785,0,0,0,9.774,9.774h53.853a9.785,9.785,0,0,0,9.775-9.774V55.7a9.786,9.786,0,0,0-9.775-9.775Z" transform="translate(-907 -44.731)"/><g transform="translate(6.98 44.423)"><path class="c" d="M940.325,143.409h-.92l-2.052,7.542h.919Z" transform="translate(-927.736 -133.873)"/><path class="c" d="M943.3,143.394h-.575l-2.06,7.55h.575Z" transform="translate(-929.235 -133.866)"/><path class="c" d="M945.348,143.394H945l-2.049,7.55h.344Z" transform="translate(-930.275 -133.866)"/><path class="c" d="M924.993,143.409h-3.161l-2.067,7.548h3.161Z" transform="translate(-919.765 -133.873)"/><path class="c" d="M931.813,143.409H929.8l-2.054,7.542h2.012Z" transform="translate(-923.383 -133.873)"/><path class="c" d="M936.584,143.394h-1.523l-2.074,7.55h1.523Z" transform="translate(-925.758 -133.866)"/><path class="c" d="M1014.013,133.583h2.424l2.1-7.61h-2.424Z" transform="translate(-962.477 -125.971)"/><path class="c" d="M1019.917,133.569h3.665l2.1-7.59h-3.665Z" transform="translate(-965.153 -125.974)"/><path class="c" d="M1009.69,133.569h1.542l2.139-7.59h-1.542Z" transform="translate(-960.518 -125.974)"/><path class="c" d="M1006.173,133.581h1.168l2.123-7.612H1008.3Z" transform="translate(-958.924 -125.97)"/><path class="c" d="M1003.533,133.569h.705l2.1-7.59h-.705Z" transform="translate(-957.728 -125.974)"/><path class="c" d="M1001.425,133.581h.441l2.1-7.612h-.441Z" transform="translate(-956.772 -125.97)"/><path class="d" d="M1013.221,143.4l-.471,1.755h-4.4a.526.526,0,0,0-.574.549.52.52,0,0,0,.493.53h2.388c1.01,0,1.673.484,1.516,1.067l-.733,2.72a1.6,1.6,0,0,1-1.631.953h-11.8c-.495,0-.848-.536-.683-1.17l1.719-6.4h6.284l-.47,1.755h-4.11l-.29,1.079h3.889l-.471,1.757H999.99l-.238.868c-.073.271-.033.221.269.231h9.03a.562.562,0,0,0,.575-.585.49.49,0,0,0-.522-.511h-3.148c-.658,0-.962-.366-.844-.807l.832-3.1c.2-.719.768-.689,1.115-.684Z" transform="translate(-954.895 -133.868)"/><path class="d" d="M989.705,143.4c.775.043.676.63.468,1.4l-.656,2.446a.9.9,0,0,1-1.06.721h-.776l1.365,3h-2.115l-1.485-3,.466-1.736h1.7c.552,0,.535-.052.588-.3l.072-.255c.137-.511-.039-.55-.517-.529h-3.116l-1.563,5.819H980.51l2.033-7.576h7.162Z" transform="translate(-947.294 -133.869)"/><path class="d" d="M972.511,147.123c.862-.1.956.32.909.7l-.707,2.594c-.142.57-.55.512-1.8.558h-3.048l.508-1.883h2.035c.486.011.852-1.1.253-1.1h-2l.463-1.757h2.057a.54.54,0,1,0,.038-1.079h-2.893l-1.565,5.819-2.178,0,2.037-7.571,5.494,0c1.363,0,1.815.549,1.673,1.268l-.387,1.44C973.186,146.836,972.928,147.037,972.511,147.123Z" transform="translate(-940.077 -133.869)"/><path class="d" d="M962.866,143.4l-2.034,7.574h-2.279l2.033-7.574Z" transform="translate(-937.343 -133.869)"/><path class="d" d="M952.77,149.092l-.506,1.883h-4.831c-1.152,0-1.366-.23-.916-1.736l1.567-5.839h2.386l-.709,2.55-.608,2.355c-.189.636.1.8.971.786Z" transform="translate(-931.79 -133.869)"/><path class="e" d="M956.861,126l-2.064,7.6h3.3l2.064-7.6Zm-6.07,1.782h0L953.207,126h3.115l-4.719,3.464,2.033,4.131h-3.807l-1-2.078-2.806,2.08h-3.115l5.116-3.773L946.112,126h3.806l.873,1.782ZM927.85,126h0l-.528,1.944h2.206l-1.559,5.652h3.053l1.535-5.652h2.423l.528-1.944Zm10.778,0h3.393l.421,7.6h-3.392l.034-1.341h-3.017l-1.089,1.341h-2.544l6.195-7.6Zm.374,4.578,0-2.2-1.808,2.2ZM962.079,126h6.638c.28,0,.4.066.293.354l-.341,1.248a.431.431,0,0,1-.5.341h-4.212a.482.482,0,0,0-.516.436.434.434,0,0,0,.393.455h3.14c.736-.013,1.361.168,1.11.92l-.882,3.213c-.128.349-.2.586-.544.616h-7.334c-.16,0-.238-.071-.2-.263l.435-1.4c.042-.23.235-.215.355-.223H964.4a.428.428,0,0,0,.461-.477c0-.284-.177-.484-.421-.462H961.28a.929.929,0,0,1-.7-.212c-.156-.168-.193-.437-.04-.867l0-.007.911-3.342a.572.572,0,0,1,.626-.333Zm-23.126,6.113Z" transform="translate(-923.19 -125.985)"/></g><g transform="translate(25.59 12.868)"><path class="f" d="M955.523,68.264h0L953.8,74.618h7.21l-5.1,18.471h9.98l5.015-18.472h7.92l1.727-6.353Z" transform="translate(-953.798 -68.264)"/><g class="g"><g transform="translate(-15.412 -22.126)"><path class="h" d="M951.18,53.356c7.851-.647,17.488-5.017,19.666-9.291a20.476,20.476,0,0,0-40.506,3.549C933.918,51.546,943.362,54,951.18,53.356Z" transform="translate(-927.755 -27.802)"/><path class="i" d="M973.008,69.544c-2.621,7.429-2.574,18.01.435,21.746A20.477,20.477,0,0,0,986.77,52.875C981.719,54.533,975.618,62.147,973.008,69.544Z" transform="translate(-946.232 -39.165)"/><path class="j" d="M929.3,63.912c3.751,7.871,12.056,16.128,17.334,16.7A22.662,22.662,0,0,0,927.06,40.094C924.4,45.34,925.564,56.075,929.3,63.912Z" transform="translate(-925.612 -32.809)"/></g></g></g></g></g></g></svg>